<?xml version="1.0" encoding="utf-8"?>
<!-- Generator: Adobe Illustrator 16.0.0, SVG Export Plug-In . SVG Version: 6.00 Build 0)  -->
<!DOCTYPE svg PUBLIC "-//W3C//DTD SVG 1.1//EN" "http://www.w3.org/Graphics/SVG/1.1/DTD/svg11.dtd">
<svg version="1.1" id="imdb" xmlns="http://www.w3.org/2000/svg" xmlns:xlink="http://www.w3.org/1999/xlink" x="0px" y="0px"
	 width="1280px" height="525.052px" viewBox="0 0 1280 525.052" enable-background="new 0 0 1280 525.052" xml:space="preserve">
<path id="m" fill-rule="evenodd" clip-rule="evenodd" fill="#979797" d="M424.655,5.025c57.893,0,115.784,0,173.676,0
	c0.075,1.543,0.214,3.085,0.214,4.628c0.01,167.773,0.01,335.546,0.01,503.32c0,1.661,0,3.322,0,5.123c-39.062,0-77.622,0-116.474,0
	c0-113.936,0-227.488,0-341.041c-0.915,1.225-1.364,2.511-1.54,3.833c-5.469,41.246-10.842,82.504-16.372,123.742
	c-9.375,69.912-18.876,139.808-28.184,209.729c-0.461,3.466-1.676,4.209-4.925,4.191c-24.917-0.128-49.836-0.066-74.755-0.077
	c-1.219-0.001-2.438-0.12-4.094-0.206c-15.989-111.104-31.964-222.114-47.939-333.123c-0.31,0.013-0.62,0.024-0.93,0.037
	c0,110.952,0,221.903,0,333.04c-39.117,0-77.571,0-116.503,0c0-2.223,0-4.192,0-6.163c0-167.154,0-334.309,0.002-501.463
	c0-1.856,0.034-3.713,0.052-5.57c57.583,0,115.165,0,172.748,0c0.914,6.107,1.865,12.211,2.736,18.325
	c9.671,67.819,19.327,135.64,28.998,203.459c0.721,5.055,1.524,10.098,2.289,15.146c1.268-3.556,1.696-7.033,2.138-10.508
	c5.432-42.803,10.852-85.607,16.303-128.407C416.269,70.366,420.471,37.696,424.655,5.025z"/>
<path id="d" fill-rule="evenodd" clip-rule="evenodd" fill="#979797" d="M636.41,5.025c43.651,0,87.303,0,130.954,0
	c1.366,0.199,2.727,0.513,4.101,0.578c15.458,0.734,30.934,1.203,46.375,2.192c18.536,1.188,37.056,2.817,54.964,8.231
	c40.532,12.254,64.718,39.002,69.314,81.377c2.431,22.413,3.076,45.098,3.208,67.668c0.411,69.653,0.481,139.313,0.044,208.965
	c-0.146,23.177-1.26,46.442-3.645,69.49c-3.744,36.183-23.94,58.515-58.959,67.962c-21.443,5.786-43.429,6.669-65.386,6.798
	c-59.283,0.347-118.569,0.167-177.854,0.184c-1.038,0-2.075-0.158-3.586-0.281c0-2.045,0-3.865,0-5.688
	c-0.001-167.639-0.002-335.278,0.019-502.916C635.959,8.064,636.253,6.545,636.41,5.025z M769.597,93.365
	c0,112.833,0,224.818,0,337.408c6.219-0.596,12.114-0.758,17.854-1.791c13.919-2.506,19.301-7.731,21.498-21.677
	c1.514-9.605,2.729-19.375,2.759-29.075c0.248-80.796,0.235-161.592,0.145-242.388c-0.008-7.398-0.761-14.844-1.8-22.178
	c-1.11-7.843-5.321-13.89-12.938-16.811C788.303,93.476,779.013,93.648,769.597,93.365z"/>
<path id="b" fill-rule="evenodd" clip-rule="evenodd" fill="#979797" d="M975.403,5.025c42.414,0,84.826,0,127.239,0
	c0.197,1.66,0.566,3.319,0.568,4.98c0.033,36.995,0.025,73.99,0.025,110.985c0,1.57,0,3.14,0,5.748
	c9.215-10.227,18.396-18.492,29.463-24.368c29.51-15.669,60.217-15.863,90.8-4.73c28.811,10.487,43.323,32.621,45.325,62.99
	c0.61,9.259,0.882,18.557,0.891,27.838c0.074,74.609,0.134,149.219-0.033,223.828c-0.026,11.894-0.846,23.82-1.957,35.67
	c-1.098,11.709-2.745,23.523-8.543,33.985c-13.769,24.843-35.381,38.546-63.095,43.224c-2.09,0.353-4.097,1.193-6.142,1.807
	c-6.192,0-12.384,0-18.575,0c-1.376-0.575-2.705-1.468-4.136-1.679c-19.593-2.893-36.423-11.425-50.911-24.772
	c-4.5-4.146-8.927-8.373-13.368-12.545c-2.203,8.401-4.673,17.132-6.715,25.96c-0.802,3.463-2.139,4.646-5.836,4.629
	c-36.823-0.156-73.646-0.095-110.47-0.095c-1.49,0-2.981,0-4.835,0c0-2.782,0-4.934,0-7.083c0-166.943-0.001-333.886,0.013-500.83
	C975.112,8.72,975.302,6.873,975.403,5.025z M1141.633,309.212c-0.039,0-0.079,0-0.118,0c0-35.433,0.242-70.868-0.165-106.297
	c-0.106-9.179-1.49-18.518-3.671-27.445c-1.969-8.067-9.113-11.446-18.348-10.595c-7.919,0.729-12.54,4.771-13.796,13.16
	c-1.097,7.323-1.962,14.763-1.978,22.153c-0.146,71.33-0.179,142.659,0.029,213.988c0.023,8.287,1.161,16.677,2.765,24.826
	c1.76,8.944,7.54,12.814,16.748,12.713c8.755-0.098,14.488-4.205,15.799-13.184c1.557-10.674,2.507-21.521,2.616-32.305
	C1141.842,373.892,1141.633,341.551,1141.633,309.212z"/>
<path id="i" fill-rule="evenodd" clip-rule="evenodd" fill="#979797" d="M148.817,5.025c0.229,1.489,0.66,2.978,0.661,4.467
	c0.03,167.946,0.028,335.891,0.028,503.837c0,1.513,0,3.026,0,5.295c-44.779,0-89.14,0-133.5,0c0-171.199,0-342.399,0-513.599
	C60.276,5.025,104.547,5.025,148.817,5.025z"/>
</svg>
